<svg xmlns="http://www.w3.org/2000/svg" viewBox="0 0 482.35 183.72"><defs><style>.cls-1{fill:#1a1a1a;}</style></defs><g id="Layer_2" data-name="Layer 2"><g id="Layer_1-2" data-name="Layer 1"><path class="cls-1" d="M82.63,69.87c-3.84,23.85-9.09,66.31-37.07,73.41-15.47,4.12-35.07-2-42.6-16.9-4.54-9.09-3.55-19.17.86-28C8.93,88.33,18.16,81.94,29.52,81.8c12.21-.29,23.14,11.64,17.32,22.71-2.7,4.83-7.81,6.39-13.06,6.11a9.07,9.07,0,0,0-.29-7c-2.84-5.82-11.92-6-16.47-2.84-6.39,4.26-7.95,13.49-6.1,20.45,3.4,13.92,21.15,21.3,33.08,14.34,17.75-10.22,19.88-60.2,23.29-81.08,1.85-12.07,5.54-34.22,17.89-39.33,5.26-2.13,13.35-2.84,17,2.41C93.56,19.74,89.73,28,90.44,35.79c1.7,20.59,12.35,47.14,18.31,67.16C112.73,75.69,124.23.86,157.32,0c6.53-.14,12.07,3.41,11.92,10.51-56.08-5.68-43.73,136.6-66.73,133.76C102.51,115.45,91.15,96.85,82.63,69.87Z"/><path class="cls-1" d="M183.73,103.66l3.41.14c-.15.29-.29.57-.43.86-5.82,16-22.29,37.06-41.61,35.07-4.4-.57-9.23-2.41-12.21-5.68-14.91-16.47,3.69-74,34.79-64.75C192,77,169.81,113,148.23,111.05a28,28,0,0,1-5.68-1.42C141.27,115,140,126,144.39,130.36,157.88,143.71,178.62,116.73,183.73,103.66Zm-39.34,2.84c11.22,1,31-28.25,20.88-30-8.52-1.56-18.89,14.34-22.15,29.68C143.54,106.36,143.83,106.36,144.39,106.5Z"/><path class="cls-1" d="M255,101.39h3.12a4.3,4.3,0,0,1-.56,1.42c-8.66,20.87-14.35,40-33.51,47-36.07,77.82-84.49-1.84-11.22-7.67,2.27-7.66,3.83-14.48,5.25-20.73-14.48,25.56-41,26.7-37.77-11.36,4.83-40.61,36.64-52,47.14-34.5A8.74,8.74,0,0,0,228,73.7c3.13-9.65,16.9-7.81,13.21,5.11-4.4,19.74-7.81,39.62-12.92,59.78a26.29,26.29,0,0,0,7.24-3.69C245.64,126.52,248.91,113.6,255,101.39Zm-45.58,48.85c-18.18,0-32.23,18.46-21,22.72C198.5,175.51,206.87,157.48,209.43,150.24Zm-2.7-69c-14.2,12.49-20,52.82-3.55,46.43,12.07-4.4,19-26.27,19.6-38.2C223.2,77.53,213.41,75.26,206.73,81.23Z"/><path class="cls-1" d="M306.56,80.66c-3,13.06-10.09,34.08-10.23,45.58,0,1.28.43,3.69,2.13,3.69,1,.14,2-.71,2.7-1.42,4.83-4.68,10.65-17,13.77-23.29h3.13c-.14.57-.29,1-.43,1.42-4,9.38-13.2,33.52-25,33.37a7.93,7.93,0,0,1-6.53-3c-2.56-2.7-3.41-7.95-3-14.34-14.2,24.57-39.34,25.28-36.21-12.35,5.11-45,39.05-53.82,44.44-27.69.85-2.7,1.42-5,1.85-6.82C296.19,66.18,310,67.74,306.56,80.66Zm-33.94.85c-13.78,12.5-19.46,52.82-3.55,46.43,11.78-4.4,18.6-26.26,19.17-38C288.66,77.82,279.15,75.55,272.62,81.51Z"/><path class="cls-1" d="M356.11,88.47c-6.11,10.08-11.64,20.73-14.62,32.09-.57,3.12-1.43,7,.71,9.66,2.69,3.12,7.24.71,9.93-1.42,8.67-7.1,14.77-17,19.6-27.12H375c-4.55,11.21-10.09,22.57-18.46,31.52-3.84,3.83-8.81,7.38-14.49,6.81-5.11-.14-9.09-4.26-10.51-8.94-2.13-7.95-1-16.19,1.14-24,1.7-5.68,3.55-11.36,7-16.33a31,31,0,0,1-14.91-2.84c-1.42,4.4-7.24,20.45-9.51,23.15l-2.28-1.14a13.57,13.57,0,0,1,.86-2.13c2.69-7,6-13.92,7.95-21.16C291.08,63.19,342.2,35.36,330,75,336.66,79.67,368.75,64.05,356.11,88.47ZM326,73.84c2.13-3.12,4-17-2.84-14.48C316.07,61.92,320.9,71.29,326,73.84Z"/><path class="cls-1" d="M419.16,103.66l3.41.14c-.15.29-.29.57-.43.86-5.82,16-22.29,37.06-41.61,35.07-4.4-.57-9.23-2.41-12.21-5.68-14.91-16.47,3.69-74,34.79-64.75,24.28,7.67,2.13,43.73-19.45,41.75a28,28,0,0,1-5.68-1.42c-1.28,5.39-2.56,16.33,1.84,20.73C393.31,143.71,414.05,116.73,419.16,103.66Zm-39.34,2.84c11.22,1,31-28.25,20.88-30-8.52-1.56-18.89,14.34-22.15,29.68C379,106.36,379.26,106.36,379.82,106.5Z"/><path class="cls-1" d="M470.7,27.69c-1.56,18.32-18.46,38.49-31.52,50q-.85,3.19-2.56,8.94c3.41-5.68,14.77-14.05,21-14.05,26.41,0-10.08,60.63,1.56,60.63,7,0,17.47-23.29,20-28.4h3.13a4.31,4.31,0,0,1-.57,1.42c-3,7.24-9.23,23.14-17.18,30.1-2.56,2.27-5.26,3.69-8.52,3.69-27.83-.71,5.25-58.92-4.4-58.92-5.26,0-17.75,19.31-19.74,24.13A107.7,107.7,0,0,0,426.83,121c-1,4.11-1.85,8.23-2.84,12.35-1.42,9.66-11.08,7-10.65,1.28a148.78,148.78,0,0,1,3.12-20.88c4.4-21.72,20.59-89.45,41.46-94.57C465.31,17.33,471.41,19.74,470.7,27.69ZM442,68c3.55-4.4,27.69-37.34,19.45-40C455.79,26.27,444.43,60.07,442,68Z"/></g></g></svg>